
<svg aria-hidden="true" style="position: absolute; width: 0; height: 0; overflow: hidden;" version="1.1"
     xmlns="http://www.w3.org/2000/svg" xmlns:xlink="http://www.w3.org/1999/xlink">
    <defs>
        <symbol  viewBox="0 0 16 12" id="icon-discord">
        <path d="M3.66828 9.09047C7.06944 10.4178 9.96383 10.6763 13.2438 8.61031C13.2197 8.64637 12.5709 9.60758 10.8648 10.1002C11.2252 10.5928 11.7178 11.1575 11.7178 11.1575C12.8112 11.1575 13.8806 10.8451 14.8057 10.2444C15.5267 9.76374 15.9352 8.93469 15.8511 8.06962C15.7069 6.59173 15.3584 5.1499 14.8178 3.76818C14.1329 1.9659 12.4868 0.716304 10.5764 0.536063C10.4082 0.524042 10.288 0.524042 10.216 0.524042L10.0237 0.716269C12.2225 1.34107 13.3159 2.3143 13.3399 2.35036C9.96362 0.644179 5.97458 0.620173 2.57424 2.27827C2.57424 2.27827 3.65562 1.20891 6.04663 0.644179L5.90246 0.5C5.65012 0.5 5.40981 0.524042 5.15752 0.560069C3.39127 0.860448 1.91342 2.07399 1.27659 3.7441C0.723884 5.18593 0.363436 6.69985 0.231278 8.2378C0.159188 9.05483 0.543678 9.85987 1.21653 10.3285C2.10564 10.9172 3.16298 11.2296 4.23234 11.2296C4.23234 11.2296 4.66488 10.6649 5.09745 10.1603C3.47538 9.67963 2.81455 8.71843 2.80253 8.68236L3.1078 8.83824C3.29029 8.93148 3.47738 9.01595 3.66828 9.09047ZM5.55403 8.04558C4.77303 8.02154 4.16025 7.36071 4.18429 6.56769C4.20833 5.82275 4.80909 5.22199 5.55403 5.19795C6.33503 5.22199 6.94781 5.88282 6.92377 6.67584C6.8877 7.42081 6.29897 8.02157 5.55403 8.04558ZM10.4562 8.04558C9.67523 8.02154 9.06245 7.36071 9.08649 6.56769C9.11053 5.82275 9.71129 5.22199 10.4562 5.19795C11.2372 5.22199 11.85 5.88282 11.826 6.67584C11.802 7.42081 11.2012 8.02157 10.4562 8.04558Z"></path>
        </symbol>
        <symbol viewBox="0 0 17 10" id="icon-medium">
        <path d="M9.1753 5.07805C9.1753 7.56321 7.18952 9.57782 4.74007 9.57782C2.29062 9.57782 0.304688 7.56321 0.304688 5.07805C0.304688 2.59289 2.29047 0.578125 4.74007 0.578125C7.18967 0.578125 9.1753 2.59289 9.1753 5.07805Z"></path>
        <path d="M14.0408 5.07617C14.0408 7.41542 13.048 9.31251 11.8232 9.31251C10.5984 9.31251 9.60547 7.41542 9.60547 5.07617C9.60547 2.73693 10.5982 0.839844 11.823 0.839844C13.0478 0.839844 14.0407 2.73632 14.0407 5.07617"></path>
        <path d="M16.0324 5.07633C16.0324 7.17172 15.6833 8.87142 15.2525 8.87142C14.8217 8.87142 14.4727 7.17218 14.4727 5.07633C14.4727 2.98049 14.8218 1.28125 15.2525 1.28125C15.6831 1.28125 16.0324 2.98034 16.0324 5.07633Z"></path>
        </symbol>
        <symbol viewBox="0 0 83 63" id="icon-telegram">
            <path d="M80.535 0C80.2605 0 79.9861 4.79817e-07 79.5744 0.127531L1.62995 27.6741C-0.565672 28.4393 -0.565664 31.3725 1.76718 32.0101L19.881 37.6215L30.7219 57.8988C30.8591 58.2814 31.2708 58.5364 31.8197 58.5364C32.0941 58.5364 32.3686 58.4089 32.5058 58.2814L42.6606 50.247L31.2708 42.2125L32.2314 52.7976L23.9978 36.9838L67.4985 12.6255L31.2708 42.085L59.5394 61.9798C60.5 62.6174 61.5978 63 62.6956 63C64.8912 63 67.0868 61.5972 67.6357 59.4291L82.8678 2.67814C83.4167 1.40283 82.1817 0 80.535 0Z" fill="black"></path>
        </symbol>
        <symbol viewBox="0 0 51 53" id="icon-twitter">
            <path d="M30.3525 22.23L49.3388 0H44.8387L28.3575 19.3012L15.1875 0H0L19.9125 29.19L0 52.5H4.5L21.9075 32.115L35.8163 52.5H51.0037L30.3525 22.23ZM24.1912 29.445L22.1737 26.5387L6.12 3.4125H13.0313L25.9837 22.0763L28.0012 24.9825L44.8425 49.245H37.9312L24.1912 29.445Z" fill="black"></path>
        </symbol>
        <symbol viewBox="0 0 76 76" id="icon-insta">
            <g clip-path="url(#clip0_62_121)">
                <path d="M4.25 34.25C4.25 20.1088 4.25 13.0362 8.645 8.645C13.04 4.25375 20.1088 4.25 34.25 4.25H41.75C55.8912 4.25 62.9637 4.25 67.355 8.645C71.7462 13.04 71.75 20.1088 71.75 34.25V41.75C71.75 55.8912 71.75 62.9637 67.355 67.355C62.96 71.7462 55.8912 71.75 41.75 71.75H34.25C20.1088 71.75 13.0362 71.75 8.645 67.355C4.25375 62.96 4.25 55.8912 4.25 41.75V34.25Z" stroke="black" stroke-width="7.5"></path>
                <path d="M54.875 26.75C57.9816 26.75 60.5 24.2316 60.5 21.125C60.5 18.0184 57.9816 15.5 54.875 15.5C51.7684 15.5 49.25 18.0184 49.25 21.125C49.25 24.2316 51.7684 26.75 54.875 26.75Z" fill="black"></path>
                <path d="M38 49.25C44.2132 49.25 49.25 44.2132 49.25 38C49.25 31.7868 44.2132 26.75 38 26.75C31.7868 26.75 26.75 31.7868 26.75 38C26.75 44.2132 31.7868 49.25 38 49.25Z" stroke="black" stroke-width="7.5"></path>
            </g>
            <defs>
                <clipPath id="clip0_62_121">
                    <rect width="76" height="76" fill="white"></rect>
                </clipPath>
            </defs>
        </symbol>
        <symbol  viewBox="0 0 60 68" id="icon-tiktok">
            <path d="M47.4996 10.825C44.9368 7.89823 43.5242 4.14025 43.5246 0.25H31.9371V46.75C31.8496 49.267 30.7878 51.6515 28.9758 53.4006C27.1637 55.1497 24.7431 56.1265 22.2246 56.125C16.8996 56.125 12.4746 51.775 12.4746 46.375C12.4746 39.925 18.6996 35.0875 25.1121 37.075V25.225C12.1746 23.5 0.849609 33.55 0.849609 46.375C0.849609 58.8625 11.1996 67.75 22.1871 67.75C33.9621 67.75 43.5246 58.1875 43.5246 46.375V22.7875C48.2234 26.1619 53.8647 27.9724 59.6496 27.9625V16.375C59.6496 16.375 52.5996 16.7125 47.4996 10.825Z" fill="black"></path>
        </symbol>
        <symbol viewBox="0 0 76 60" id="icon-youtube">
            <g clip-path="url(#clip0_62_118)">
                <path d="M30.5 16.875L53 30L30.5 43.125V16.875Z" fill="black"></path>
                <path d="M38 3.75C71.75 3.75 71.75 3.75 71.75 30C71.75 56.25 71.75 56.25 38 56.25C4.25 56.25 4.25 56.25 4.25 30C4.25 3.75 4.25 3.75 38 3.75Z" stroke="black" stroke-width="7.5" stroke-linecap="round" stroke-linejoin="round"></path>
            </g>
            <defs>
                <clipPath id="clip0_62_118">
                    <rect width="76" height="60" fill="white"></rect>
                </clipPath>
            </defs>
        </symbol>
    </defs>
</svg>