
<svg aria-hidden="true" style="position: absolute; width: 0; height: 0; overflow: hidden;" version="1.1"
     xmlns="http://www.w3.org/2000/svg" xmlns:xlink="http://www.w3.org/1999/xlink">
    <defs>
        <symbol  viewBox="0 0 16 12" id="icon-discord">
        <path d="M3.66828 9.09047C7.06944 10.4178 9.96383 10.6763 13.2438 8.61031C13.2197 8.64637 12.5709 9.60758 10.8648 10.1002C11.2252 10.5928 11.7178 11.1575 11.7178 11.1575C12.8112 11.1575 13.8806 10.8451 14.8057 10.2444C15.5267 9.76374 15.9352 8.93469 15.8511 8.06962C15.7069 6.59173 15.3584 5.1499 14.8178 3.76818C14.1329 1.9659 12.4868 0.716304 10.5764 0.536063C10.4082 0.524042 10.288 0.524042 10.216 0.524042L10.0237 0.716269C12.2225 1.34107 13.3159 2.3143 13.3399 2.35036C9.96362 0.644179 5.97458 0.620173 2.57424 2.27827C2.57424 2.27827 3.65562 1.20891 6.04663 0.644179L5.90246 0.5C5.65012 0.5 5.40981 0.524042 5.15752 0.560069C3.39127 0.860448 1.91342 2.07399 1.27659 3.7441C0.723884 5.18593 0.363436 6.69985 0.231278 8.2378C0.159188 9.05483 0.543678 9.85987 1.21653 10.3285C2.10564 10.9172 3.16298 11.2296 4.23234 11.2296C4.23234 11.2296 4.66488 10.6649 5.09745 10.1603C3.47538 9.67963 2.81455 8.71843 2.80253 8.68236L3.1078 8.83824C3.29029 8.93148 3.47738 9.01595 3.66828 9.09047ZM5.55403 8.04558C4.77303 8.02154 4.16025 7.36071 4.18429 6.56769C4.20833 5.82275 4.80909 5.22199 5.55403 5.19795C6.33503 5.22199 6.94781 5.88282 6.92377 6.67584C6.8877 7.42081 6.29897 8.02157 5.55403 8.04558ZM10.4562 8.04558C9.67523 8.02154 9.06245 7.36071 9.08649 6.56769C9.11053 5.82275 9.71129 5.22199 10.4562 5.19795C11.2372 5.22199 11.85 5.88282 11.826 6.67584C11.802 7.42081 11.2012 8.02157 10.4562 8.04558Z"></path>
        </symbol>
        <symbol viewBox="0 0 17 10" id="icon-medium">
        <path d="M9.1753 5.07805C9.1753 7.56321 7.18952 9.57782 4.74007 9.57782C2.29062 9.57782 0.304688 7.56321 0.304688 5.07805C0.304688 2.59289 2.29047 0.578125 4.74007 0.578125C7.18967 0.578125 9.1753 2.59289 9.1753 5.07805Z"></path>
        <path d="M14.0408 5.07617C14.0408 7.41542 13.048 9.31251 11.8232 9.31251C10.5984 9.31251 9.60547 7.41542 9.60547 5.07617C9.60547 2.73693 10.5982 0.839844 11.823 0.839844C13.0478 0.839844 14.0407 2.73632 14.0407 5.07617"></path>
        <path d="M16.0324 5.07633C16.0324 7.17172 15.6833 8.87142 15.2525 8.87142C14.8217 8.87142 14.4727 7.17218 14.4727 5.07633C14.4727 2.98049 14.8218 1.28125 15.2525 1.28125C15.6831 1.28125 16.0324 2.98034 16.0324 5.07633Z"></path>
        </symbol>
        <symbol viewBox="0 0 12 11" id="icon-telegram">
        <path d="M0.778217 4.72355L10.7643 0.886802C11.2278 0.719949 11.6326 0.99947 11.4824 1.69784L11.4832 1.69698L9.78294 9.67924C9.65693 10.2452 9.31945 10.3828 8.84734 10.1162L6.25804 8.21455L5.00913 9.41348C4.87104 9.55109 4.75452 9.6672 4.48696 9.6672L4.6708 7.04142L9.46963 2.72132C9.6785 2.53813 9.42303 2.43492 9.1477 2.61725L3.21734 6.33789L0.660835 5.54319C0.105862 5.36774 0.0937783 4.99017 0.778217 4.72355Z"></path>
        </symbol>
        <symbol viewBox="0 0 12 10" id="icon-twitter">
        <path d="M4.03085 0.472656H0.738281L4.62392 5.65352L0.949923 9.87996H2.19641L5.20127 6.42328L7.79379 9.88001H11.0864L7.0373 4.48127L10.522 0.472656H9.2755L6.45997 3.7115L4.03085 0.472656ZM8.26416 8.93927L2.61975 1.41339H3.56049L9.2049 8.93927H8.26416Z"></path>
        </symbol>
    </defs>
</svg>