<svg width="216" height="215" viewBox="0 0 216 215" fill="none" xmlns="http://www.w3.org/2000/svg">
<path d="M54.5857 190.366C54.5857 190.366 49.99 179.661 50.747 176.27C51.504 172.879 49.2375 162.891 48.485 161.198C47.7325 159.505 43.9611 143.68 43.5848 141.418C43.2086 139.156 42.0798 118.623 43.5848 116.738C45.0898 114.852 48.6642 109.015 48.3865 107.699C48.1088 106.382 48.1088 98.8433 50.1782 95.8288C52.2475 92.8143 76.9277 65.1286 80.8828 63.6191C84.8379 62.1096 89.55 61.3571 90.8714 60.4165C92.1927 59.4759 109.142 55.1401 116.864 54.9519C124.586 54.7638 146.064 64.3716 151.336 83.3946C156.612 102.427 166.784 107.51 168.477 110.901C170.171 114.292 170.739 144.432 170.739 152.911C170.739 161.39 173.942 165.722 173.001 168.732C172.061 171.742 165.727 190.366 165.727 190.366" stroke="black" stroke-width="4.47917" stroke-linecap="round" stroke-linejoin="round"/>
<path d="M100.662 155.734C102.36 161.01 108.577 169.485 119.69 167.415C130.803 165.346 131.936 159.693 131.56 153.664C131.183 147.635 130.803 145.561 130.803 145.561M123.829 80.8509C126.229 79.9641 133.624 79.3459 138.708 84.9986C143.792 90.6513 155.474 104.967 150.766 111.936C146.059 118.906 131.739 123.045 125.145 118.718C118.552 114.391 107.816 105.652 109.513 100.035C111.211 94.4183 120.433 82.1096 123.829 80.8509ZM83.5205 97.9031C88.9851 101.074 97.4597 105.061 95.2022 111.466C92.9402 117.871 84.4656 130.305 79.3773 131.999C74.289 133.692 64.6856 133.696 61.483 128.608C58.2804 123.524 57.5279 109.016 59.7854 106.382C62.0429 103.748 74.3382 92.5819 83.5205 97.9031Z" stroke="black" stroke-width="4.47917" stroke-linecap="round" stroke-linejoin="round"/>
<path d="M61.2941 104.842C64.3085 105.594 68.9534 107.198 68.5145 112.788C68.2009 116.743 60.2862 118.942 58.7812 118.75M138.712 84.9991C131.63 84.4616 130.17 90.2084 130.86 92.972C131.55 95.7357 137.391 98.0604 139.903 96.5554C142.416 95.0504 143.836 92.972 143.711 91.0102" stroke="black" stroke-width="4.47917" stroke-linecap="round" stroke-linejoin="round"/>
<path d="M172.947 190.365H43.0514C33.1973 190.365 25.1348 182.302 25.1348 172.448V42.5524C25.1348 32.6982 33.1973 24.6357 43.0514 24.6357H172.947C182.801 24.6357 190.864 32.6982 190.864 42.5524V172.448C190.864 182.302 182.801 190.365 172.947 190.365Z" stroke="black" stroke-width="4.47917" stroke-linecap="round" stroke-linejoin="round"/>
</svg>
